/* XPM */
static char *result[] = {
/* columns rows colors chars-per-pixel */
"50 50 66 1 ",
"  c #000000",
". c #090907",
"X c #0C0B0A",
"o c #140D0A",
"O c #13110F",
"+ c #141311",
"@ c #1A1514",
"# c #1C1917",
"$ c #1E1C19",
"% c #201916",
"& c #231D1A",
"* c #24231E",
"= c #2A231F",
"- c #262520",
"; c #2B2522",
": c #2C2A25",
"> c #2F2D29",
", c #322724",
"< c #332A26",
"1 c #342D29",
"2 c #382F2B",
"3 c #34332C",
"4 c #39332E",
"5 c #373731",
"6 c #3C3631",
"7 c #3C3B34",
"8 c #403732",
"9 c #423B35",
"0 c #443E39",
"q c #404037",
"w c #44433B",
"e c #4A433D",
"r c #47483D",
"t c #49493F",
"y c #4D4641",
"u c #4C4C42",
"i c #544C44",
"p c #584F47",
"a c #534E48",
"s c #584F48",
"d c #4F5044",
"f c #515146",
"g c #55554A",
"h c #5A534C",
"j c #59594D",
"k c #5E5751",
"l c #5D5C51",
"z c #635C54",
"x c #645F5A",
"c c #5F6054",
"v c #616156",
"b c #696157",
"n c #666559",
"m c #6A645C",
"M c #67685B",
"N c #6A6A5D",
"B c #6E6E61",
"V c #746C63",
"C c #6F7063",
"Z c #727365",
"A c #797167",
"S c #757668",
"D c #7B7B6C",
"F c #7F8073",
"G c #828373",
"H c #8D8E7E",
/* pixels */
"                                                  ",
"                                                  ",
"                                                  ",
"                                                  ",
"                                                  ",
"                                                  ",
"                                                  ",
"                                                  ",
"                    .+qjjldyq-                    ",
"                  +rZjZGDGGDDnCr.                 ",
"                 7DDBZhDFHGGZuGDZ:                ",
"                7SFFDDMGGHHGGcFFDC5               ",
"               XMDZZDN3qu7fitfGDDZM*              ",
"              .nrfDGn#:7:e6::+uGDvf3              ",
"              3MGluj-9ye0ziih7*qDrfv-             ",
"              7rjBq$pe9<4p89i7h$$NMcu             ",
"             .lDBcg>i8,,<140ies9$ccdq             ",
"              nlZCf1i1&@oX%&%0s0*CNcjX            ",
"              NNncg56<%%@.&&%9y0*Nncj             ",
"              ufyq71;=%#@X&&@88h*MMcf.            ",
"              nZClu7s4%@@.%%@2sz#dgt5             ",
"             XcvScu7s4<,==,,,2s0>CcjgO            ",
"              lvcB7:226<1y2208se-Nvgd.            ",
"             .BMlcu-<6a8eV08x0s0:ccgt.            ",
"              ujyg77i0kkzVAyz0i0>jgdr             ",
"             .gfuy79s0hhxVV0z0he$q733             ",
"              MNlcy6i0zsxVVyk0y6>ggut.            ",
"             .lcMMy6y0zamVxis681-gjdr             ",
"             OMljnu5i9syxVky8=;>5gddt             ",
"             +Mljgy5s9hyxxaa7&*,-trtt             ",
"              557r56i8sexVxy6>1>$::::             ",
"              fljfu7i6s0mmkay:6:3wwq5             ",
"              duudwwh4h9bzzia66;5rw73             ",
"             .nMcjq-11s6mBkii69=3yuq5             ",
"             .Bngj7o#<y0zmhys66*>urq7             ",
"             X7rqr:<4:y7xxgia61-*3>>-             ",
"             .dftq7702y7mmask76->7q53             ",
"             Xfjuu3903y6mmukk66;37q5>             ",
"             .dgjj5904e3xmukk27:3rq5*             ",
"             Xjjgf799406zxakk57-3wq7:             ",
"             Xuwq5>o+##+##@$$+XX*:-*$             ",
"                                                  ",
"                                                  ",
"                                                  ",
"                                                  ",
"                                                  ",
"                                                  ",
"                                                  ",
"                                                  ",
"                                                  "
};
