/* XPM */
static char *result[] = {
/* columns rows colors chars-per-pixel */
"50 50 142 2 ",
"   c black",
".  c #010000",
"X  c #000100",
"o  c #020000",
"O  c #030000",
"+  c #010301",
"@  c #040000",
"#  c #070001",
"$  c #060101",
"%  c #080101",
"&  c #0D0202",
"*  c #0E0202",
"=  c #0F0202",
"-  c #100202",
";  c #120202",
":  c #1C0404",
">  c #210405",
",  c #230505",
"<  c #2D0606",
"1  c #3B0808",
"2  c #3D0809",
"3  c #142C11",
"4  c #44090A",
"5  c #45090A",
"6  c #450A0A",
"7  c #4D0B0B",
"8  c #4E0B0B",
"9  c #590C0D",
"0  c #5A0C0D",
"q  c #5B0C0D",
"w  c #5D0D0E",
"e  c #6D0F10",
"r  c #6E0F10",
"t  c #7A3B20",
"y  c #214A1D",
"u  c #224E1E",
"i  c #255220",
"p  c #2C6327",
"a  c #2F6828",
"s  c #6F5D2B",
"d  c #841214",
"f  c #881214",
"g  c #8B1314",
"h  c #8B1315",
"j  c #8C1315",
"k  c #8B1617",
"l  c #991517",
"z  c #AC1819",
"x  c #B1191A",
"c  c #B2191A",
"v  c #B4191A",
"b  c #B7191B",
"n  c #A72224",
"m  c #EA1C1E",
"M  c #EA1D1F",
"N  c #D61E20",
"B  c #E01F21",
"V  c #E11F21",
"C  c #E21F22",
"Z  c #EA1E20",
"A  c #EA1F21",
"S  c #EB1F21",
"D  c #DC2E26",
"F  c #CD3A28",
"G  c #D13828",
"H  c #D13928",
"J  c #E32021",
"K  c #E52022",
"L  c #E82022",
"P  c #E92022",
"I  c #EA2022",
"U  c #EB2022",
"Y  c #EA2122",
"T  c #EA2023",
"R  c #EA2123",
"E  c #EB2123",
"W  c #EB2224",
"Q  c #EB2325",
"!  c #EB2426",
"~  c #EB2527",
"^  c #EA2628",
"/  c #EB2628",
"(  c #EB2729",
")  c #EB2A2C",
"_  c #EA2B2D",
"`  c #EB2C2E",
"'  c #EC2C2E",
"]  c #EC3234",
"[  c #ED393B",
"{  c #ED3D3F",
"}  c #B7522E",
"|  c #947537",
" . c #ED4647",
".. c #EE4849",
"X. c #EE484A",
"o. c #EF4E4F",
"O. c #EF5153",
"+. c #EF5859",
"@. c #EF595A",
"#. c #F06364",
"$. c #F06566",
"%. c #F16768",
"&. c #F1696A",
"*. c #F27374",
"=. c #F27576",
"-. c #F2797B",
";. c #F37C7D",
":. c #3C8533",
">. c #798F3D",
",. c #7A8E3D",
"<. c #4EAF43",
"1. c #4EB044",
"2. c #4FB044",
"3. c #50B345",
"4. c #52B546",
"5. c #50B646",
"6. c #51B646",
"7. c #51B746",
"8. c #52B646",
"9. c #52B647",
"0. c #52B747",
"q. c #54B445",
"w. c #63A542",
"e. c #F38283",
"r. c #F48F90",
"t. c #F59596",
"y. c #F59697",
"u. c #F59797",
"i. c #F69C9D",
"p. c #F6A1A2",
"a. c #F6A6A7",
"s. c #F7B4B4",
"d. c #F8B5B6",
"f. c #FACFD0",
"g. c #FBD9D9",
"h. c #FCE1E1",
"j. c #FCE1E2",
"k. c #FDF5F5",
"l. c #FEFCFC",
"z. c #FEFDFD",
"x. c #FEFEFE",
"c. c #FFFEFE",
/* pixels */
"                                                                                                    ",
"                                                                                                    ",
"                                                                                                    ",
"                                                                                                    ",
"                                                                                                    ",
"                                                                                                    ",
"                                                                                                    ",
"                                                                                                    ",
"                                                                                                    ",
"                                                                                                    ",
"                                                                                                    ",
"                                                                                                    ",
"                                                                                                    ",
"                                                  u :.y                                             ",
"                                                  a 9.p                                             ",
"                                                  a 9.p                                             ",
"                                    X + + + + + + a 6.p + + + + + +                                 ",
"                                  . i 1.2.2.2.2.2.3.0.3.2.2.2.2.2.<.3                               ",
"                                o d s 8.0.0.0.0.0.0.0.0.0.0.0.0.0.5.t <                             ",
"                                O V } ,.,.,.4.0.0.0.0.0.0.8.w.,.,.>.F 7                             ",
"                                O C U U U U q.7.7.7.7.7.7.7.| U U U L 7                             ",
"                          $ 9 0 q K E E E I G H H H H H H H D R E E P f 0 0 &                       ",
"                          - P R R R E E E E E E E E E E E E E E E E R R R R ,                       ",
"                          - P E E E Z m A E E E E E E E E E E E M M I E E R ,                       ",
"                          - P E E E -.f...E E E E E E E E E E I r.u.W E E R ,                       ",
"                          - P E E E r.l.O.E I ) ' ( E E E E E I =.;.E E E R ,                       ",
"                          - P E E E / ' Q E M j.x.i.U E E E E I E E E E E R ,                       ",
"                          - P E E E E E E E M h.x.i.U E E E E E E E E E E R ,                       ",
"                          - B B B T E E E E Z p.s.*.U E E I [ { ] U I J B B >                       ",
"                            @ @ # C E E E E I S S U E E E m g.z.a.U P 8 @ @                         ",
"                                O C E E E E E E E E E E E m g.x.a.U P 7                             ",
"                                O C E E E E E X.y.^ E E E Z e.t.%.U P 7                             ",
"                                o z c v Y E E &.k.` E I I A I E I N x 1                             ",
"                                      * T E E W ~ E E o.d.d. .E T l .                               ",
"                                      = T E E E E E E #.x.c.+.E R l .                               ",
"                                      = T R R R R E E $.x.x.@.R R l .                               ",
"                                      % j h h b R E E ! _ n k g h w .                               ",
"                                        . . . e Y E E E P 6 . . . .                                 ",
"                                              e R E E E P 4                                         ",
"                                              r P T T T P 5                                         ",
"                                              : 2 2 2 2 2 ;                                         ",
"                                                                                                    ",
"                                                                                                    ",
"                                                                                                    ",
"                                                                                                    ",
"                                                                                                    ",
"                                                                                                    ",
"                                                                                                    ",
"                                                                                                    ",
"                                                                                                    "
};
