/* XPM */
static char *result[] = {
/* columns rows colors chars-per-pixel */
"50 50 80 1 ",
"  c black",
". c #010100",
"X c #040300",
"o c #050400",
"O c #060400",
"+ c #070500",
"@ c #080600",
"# c #090600",
"$ c #090700",
"% c #0D0A00",
"& c #0F0B01",
"* c #0F0C01",
"= c #120F01",
"- c #151101",
"; c #161201",
": c #1C1701",
"> c #1D1701",
", c #211B02",
"< c #221B02",
"1 c #221C02",
"2 c #292102",
"3 c #2E2503",
"4 c #302603",
"5 c #302703",
"6 c #302803",
"7 c #3F3303",
"8 c #433604",
"9 c #483A04",
"0 c #4D3F05",
"q c #534304",
"w c #5B4A05",
"e c #604E05",
"r c #685506",
"t c #6F5A06",
"y c #6F5A07",
"u c #715C06",
"i c #806707",
"p c #816808",
"a c #886E08",
"s c #886F08",
"d c #8C7208",
"f c #907508",
"g c #917509",
"h c #957A09",
"j c #977B09",
"k c #9E8009",
"l c #9E8109",
"z c #A7880A",
"x c #AA8A0A",
"c c #AA8B0A",
"v c #AB8B0A",
"b c #AD8D0A",
"n c #AE8E0A",
"m c #B3920B",
"M c #B5940B",
"N c #BC990B",
"B c #C19D0B",
"V c #C49F0B",
"C c #C19D0C",
"Z c #C6A10C",
"A c #C9A40C",
"S c #D5AD0D",
"D c #D5AE0D",
"F c #DBB20D",
"G c #DCB30D",
"H c #DFB50D",
"J c #E3B90E",
"K c #EABF0E",
"L c #ECC00E",
"P c #EEC10E",
"I c #EFC20E",
"U c #F0C30E",
"Y c #F0C30F",
"T c #F1C40E",
"R c #F1C40F",
"E c #F2C40E",
"W c #F2C40F",
"Q c #F2C50F",
"! c #F3C50F",
"~ c #F5C80F",
/* pixels */
"                                                  ",
"                                                  ",
"                                                  ",
"                                                  ",
"                                                  ",
"                    4xvvvvvvvvvnO                 ",
"                    8IRRRRRRRRR~#                 ",
"               o++++9IRRRRRRRRR~&++++X            ",
"               cSSSSGYRRRRRRRRRTDSSSSd            ",
"              .CRRRRRRRRRRRRRRRRRRRRRl            ",
"            =:>ZRRRRRRRRRRRRRRRRRRRRRz::%         ",
"            hJJPRRRRRRRRRRRRRRRRRRRRRLJJr         ",
"            lRRRRRRRRRRRRRRRRRRRRRRRRRRRy         ",
"         ;66nRRRRRRRRRRHVVHRRRRRRRRRRRRRs65*      ",
"         y!!RRRRRRRRRRRj  jRRRRRRRRRRRRRW!E0      ",
"         yRRRRRRRRRRRRRj  jRRRRRRRRRRRRRRRU0      ",
"         yRRRRRRRRRRRRRBuuBRRRRRRRRRRAppppi2      ",
"         yRRRRRRRRRRRRRYYYYRRRRRRRRRRl            ",
"         yRRRRRRRRRRRRRRRRRRRRRRRRRRUk            ",
"      3fgNRRRRRRRRRRRRRRRRRRUaeeeeeee7            ",
"      0URRRRRRRRRRRRRRRRRRRRI8                    ",
"      0URRRRRRRRRRRRRQQQQQQQT8                    ",
"      0URRRRRRRRRRRRM1<<<<<<,$                    ",
"      0URRRRRRRRRRRRb.                            ",
"      0URRRRRRRRRRRRm;----@                       ",
"      0URRRRRRRRRRRRKFFFFFq                       ",
"      0URRRRRRRRRRRRRRRRRRw                       ",
"      0URRRRRRRRRRRRRRRRRRt<,$                    ",
"      0URRRRRRRRRRRRRRRRRRWQT8                    ",
"      0URRRRRRRRRRRRRRRRRRRRI8                    ",
"      3fgNRRRRRRRRRRRRRRRRRRUaeeeeeee7            ",
"         yRRRRRRRRRRRRRRRRRRRRRRRRRRUk            ",
"         yRRRRRRRRRRRRRRRRRRRRRRRRRRRl            ",
"         yRRRRRRRRRRRRRRRRRRRRRRRRRRRAppppi2      ",
"         yRRRRRRRRRRRRRRRRRRRRRRRRRRRRRRRRU0      ",
"         y!!RRRRRRRRRRRRRRRRRRRRRRRRRRRRW!E0      ",
"         ;66nRRRRRRRRRRRRRRRRRRRRRRRRRRRs65*      ",
"            lRRRRRRRRRRRRRRRRRRRRRRRRRRRy         ",
"            hJJPRRRRRRRRRRRRRRRRRRRRRLJJr         ",
"            =:>ZRRRRRRRRRRRRRRRRRRRRRz::%         ",
"              .CRRRRRRRRRRRRRRRRRRRRRl            ",
"               cSSSSGYRRRRRRRRRTDSSSSd            ",
"               o++++9IRRRRRRRRR~&++++X            ",
"                    8IRRRRRRRRR~#                 ",
"                    4xvvvvvvvvvnO                 ",
"                                                  ",
"                                                  ",
"                                                  ",
"                                                  ",
"                                                  "
};
