/* XPM */
static char *result[] = {
/* columns rows colors chars-per-pixel */
"50 50 82 1 ",
"  c #010105",
". c #03030C",
"X c #040413",
"o c #06061C",
"O c #08071E",
"+ c #070723",
"@ c #080724",
"# c #070823",
"$ c #080824",
"% c #070729",
"& c #08072D",
"* c #0A092B",
"= c #0B0B34",
"- c #0D0C3C",
"; c #0E0D43",
": c #0E0D4B",
"> c #100F47",
", c #100F4A",
"< c #131244",
"1 c #11114C",
"2 c #0F0E51",
"3 c #100E52",
"4 c #110F59",
"5 c #121154",
"6 c #13125C",
"7 c #18175A",
"8 c #1C1A5F",
"9 c #151463",
"0 c #1A1963",
"q c #16146B",
"w c #18176C",
"e c #1A196C",
"r c #161573",
"t c #181773",
"y c #1A1974",
"u c #17157B",
"i c #18177C",
"p c #1B1A7C",
"a c #171680",
"s c #181785",
"d c #1C1B83",
"f c #19178A",
"g c #1E1C8C",
"h c #1D1B93",
"j c #1E1C9C",
"k c #211F80",
"l c #201E8F",
"z c #201F93",
"x c #201E9B",
"c c #222096",
"v c #22219C",
"b c #292898",
"n c #1E1CA4",
"m c #1F1CA9",
"M c #201EA2",
"N c #201EAB",
"B c #221FB4",
"V c #2422A3",
"C c #2E2CA4",
"Z c #2523AC",
"A c #2C2AAC",
"S c #302EA6",
"D c #312EAE",
"F c #3230AD",
"G c #2523B3",
"H c #2926B4",
"J c #2B29B2",
"K c #2523BD",
"L c #2826BA",
"P c #2B29BC",
"I c #312EB3",
"U c #2623C5",
"Y c #2926C6",
"T c #2B29C5",
"R c #2623CB",
"E c #2926CA",
"W c #2B29CA",
"Q c #2724D1",
"! c #2926D2",
"~ c #2C2AD2",
"^ c #2E2BDA",
"/ c #302EDC",
/* pixels */
"  Xoo$%==-<>15469y;=9gklcVc=cTyZH%PWTWTYWYYY!ZdgNy",
"  X+$*==->15670wy9#-glcvVVJ*3~dec9G~WWTTTYWEMgYiUU",
"  .XO%*---;---151=*#=;;9ccV1#VZply6dZTY!!EYThNiqqK",
"......XO#o.XOOO#==*##*X#-1- .k~ZZeq>==6ppe659;#=-6",
"O#$==*$OO*-->6weyyddllzw%1-oowH^Ze!TVe>-1;=-djdrjK",
"$*==-<>Xo50weypdklccvVZP6o1z%;qvdl~YE~Yd91yU!W!!EU",
"**=-;<1o*99qeppdllcvVZZPp.y/p;TkeYYYWY!Z;a!RYUYUUR",
"==-;:55X=qeepddgzcvVZZJTl#v^LZ~WWYWYWY!h=GEWYUUYUY",
"=->>155X-yeppdllcvVZZJPTc*HWWWTTWYYYWT!y;KRYRRUURU",
"-<>1566X<pypkglcvVVJHPP~p=TWTWWTYWWYYY!d4URYURUUUU",
";155799X<dpdglcVVZZHPTT~e-WWTYWWYWYYYRY56!UUURRUUU",
">1569q6o1ddglvVpvJHPLTT^1-~TWYWWYEYYYW!>9!UURUUURR",
"15699e9o6gglvd<9GGPPTWTW;>WYYTWWTYYYEYR69!YRRUUUUU",
"5790qy0O6llg97pGHPTTWY~J-6WWYYYYRTYYR!R;9QUUURRURU",
"690eydq#5vcy6cHGHTWWWW^d#5L~~~EWYE!EKh4*q!RRRRURUU",
"669qeq15-pcVPLPTWTPTHLV;=>5hgjGY!Gp1%O.+:fKGBUBURU",
"***==;6;%--39ype6;-=;-;-,1**-;;6qO=4qiiiu3==:42rru",
"=;twpddkdd005-1**9ppgddppr6qitu6>iUE!!E!RBh,24:fMB",
">ekdlzcVVGHPTJ-%z/~~~~~~~E!E~Z26B!RUUUUUUUQN;=nRRR",
"pddglcvVVJGLPW1%TWTTYTTYTTYYY3OOBRURYRUUUUUQq2QUUU",
"ddglcvVZZHLLT/0-WTTWWTYWYYY~j*%.qQUUURURUURQq4QUUU",
"egccvVZAHPTWWW--WWWTETWYWYYEu:3XrQUUUUUUUUsKraQUUB",
"5dezVZZHPTTTTW6.Zgp~YTEEYYY!r9d jRUUURRUUQamfmRKUB",
"5g9eZZHPPTTWT~eXg>y~YYYTYYYRKWc.9QUUUURUUURRmBRKUU",
"=zZVZHLTTTWTWT>o:#g~YQYYYYYRUEnoqQURUUUUUUUUUUKKUB",
"=VZZHPPTWWWTWT9**;UWYYYYYRYUYRU:;BUUUUUUUUUUKUKUKK",
"*kPHHTTWWWTTWTe;vTQTWYYYYYYYYQK-+NQRUUUUUUUKUKUZLK",
"=-cTTWWWWTW~Wlq9yNGGGKKKUYRRKKu&;4NBUURQRUUEUEN3xK",
"-=*7vPPPTTHz1*:5q:-=-36qq4q;;=+=:-@&=4urfnfsqi;;kP",
"ye95-==1;*#*-jc5;25-:4:;2qrqquhnmBBMuq:;rrrrt999uH",
"PW~~d-=#%5pGWW~QYGKx4=%rRRRQQQQRRRQURRn:9sBKKYYUPH",
"PTTWP--zKW~EWYYYYQY~j-=BQUUUUUUUQRuqNRK4:BUKLLHHHH",
"TWTWK*y/TTYTYEYYYRYEN*6RYUUURBRQf2aBUUU4-BPKLHLHJJ",
"WWWWK-d~TWETYYEYYYYRGoi!UURUUURu=jRRUKU6=GKLLLLHGJ",
"WTTWK=p~TYTETEYURYREmXfQURUURUUfUQUUUKK6-GKHLHHHBD",
"TWWWL*p~TEEYYUTEYYUEjomRUUURRURRUUBUKUK,-HLLHHHJJJ",
"WWT~Z-Z!YEEYYYYYYUU!a+BRUURURUUUUUUKKKE5*LLHHHHJJJ",
"WTT~l=VWTYYYYYRYRUU!r&URURUUURUUUBKUUBL--LHHHJJJJA",
"WWT~p*LEUTETUQQURUUQ4-URUUUUUUBUURBKBKG*3HHHJGJJJA",
"TTWW95YYYYUT!ga!f4QU=+BRUUUUUUUUUBUKUKH=7HGJJJJAAA",
"WWPq5qG^REYEB6ur4+sj+%mQUUUUUKKKKKKPLTxO7YHJJAAADA",
"Tg,2464uGRQ^df^jq=+:=&qURQRRRRRYTLBNNx7-,kJIPIJJIS",
"2%=;;5=#o4pfqjKRn+ X-:+&2qrrrrr96>;@*O-13=*eyypkzS",
"dhjzNGGjp4--rhjjU+X2uur&X%#*--6:,=>-<8yyp01=$==$<b",
"zB~WEQEQQQKfuuruQqomQRRmjfh;-4VGHLJJHPPPPHJCS0=-8C",
"NTYEYYYYUYQU:jh6QKXuQUUURRU4:HULLBLHHBAJAAAAFS-1SC",
"EYYYYYUUYYUK%jQrKQfqQUUUUUr2rUKLLHHHJJJJAAAASI87FC",
"EYYRRYRYYURK;nQffmasRUKUKYq,9LHHHHHJJJAJAAAASF8<SC",
"YYEYUUYURURK-jQNhnqUUUKUKUu99HLHHHHJJJAAAACACD68DC",
"EYYUUEUYUURKofQrnfBRKKKKKKUq6THHHJJJJJAAAACCCD88CC"
};
